<?xml version="1.0" encoding="UTF-8"?>
<svg version="1.1" viewBox="0 0 2000 2000" width="500" height="500" xmlns="http://www.w3.org/2000/svg">
<path transform="translate(728,472)" d="m0 0h78l21 2 37 8 27 8 26 10 26 12 18 11 14 10 11 9 10 9 38 38 11 14 10 12 10 14 4 8 5 15 12-13h2l2-4 14-14 15-10 11-5 13-4 6-1h26l20 5 17 6 30 11 28 10 6 3 1 3-15 2-24 8-22 10-18 11-18 14-19 14-11 9-10 9-11 9-5 5-2 5 1 7 6 7 7 17 4 15 9-4 10-9 11-9 13-12 11-9 10-9 11-9 16-12 22-13 22-12 26-11 23-7 25-4h19l21 3 15 4 17 8 14 10 7 6 7 8 12 14 11 16 14 27 14 38 7 26 5 32 2 16v5l-2-3-4-15-5-20-8-18-8-13-9-10-11-11-14-10-10-7-20-9-8-2h-34l-15 3-15 5-14 8-30 19-17 12-14 11-26 22-12 11-10 9-12 11-18 18-9 11-1 5 8 20 1 9 4 5h2v3l7-4 15-16 7-7 7-8 36-36 8-7 10-9 9-9 11-9 14-12 17-11 21-12 9-4 14-3 15-1 2 2-5 3-14 8-17 12-13 11-10 9-8 8-8 7-11 12-12 13-9 10-10 11-7 8-9 10-11 15-20 28-9 12-9 17 1 2 8 3 12 7 32 14 18 8 16 5 7 1h27l20-3 21-7 22-9 20-13 11-9 10-9 8-7 8-10 6-8 9-17 11-23 2 1-7 25-8 22-10 21-9 15-14 22-13 17-12 13-17 17-11 9-15 11-21 13-23 11-18 7-23 6-19 3h-30l-11-2-14-5-15-8-15-10-10-8-9-11-2-4-5 3h-2l-2 4-11 13-8 8-11 9-12 9-13 8-16 6-23 6-43 4-58 5h-9l1-4 29-14 20-11 15-10 16-12 18-14 10-9 11-9 11-10h2l1-3 5-5 13-12 10-10 8-10-6-14-7-15-3-9-5 2-13 11-7 7-8 7-13 12-11 9-11 10-8 7-11 9-11 10-17 13-10 8-39 26-22 12-15 9-19 9-26 10-30 9-36 8-29 5-25 2h-32l-27-3-36-7-18-6-25-10-20-11-13-9-14-11-12-11-13-12-16-16-12-15-12-18-13-21-15-28-12-25-8-22-10-41-6-31-4-30-1-16v-28l1-22 2-15 2 2 3 24 5 30 7 25 7 21 11 27 10 19 12 20 10 14 9 11 11 12 7 8 13 13 11 9 15 11 16 10 21 11 16 7 18 7 27 7 23 3h45l28-3 36-9 27-10 18-8 22-12 21-12 18-12 16-12 13-9 13-10 11-8 11-9 14-11 13-11 14-11 13-11 10-8 7-7 8-7 13-12 4-5-8-15-5-15-5-18-8 5-10 8-13 11-12 11-10 9-15 13-20 18-13 11-8 7-12 10-13 10-18 13-12 9-18 12-11 7-11 6-3 3-17 9-20 10-8 5-7 3-12 4-11 5-18 6-14 5-30 4-10 3h-10l1-3 22-7 26-11 27-14 16-11 15-10 19-14 14-12 11-9 28-24 31-29 31-31 7-8 24-24 7-8 13-15 12-14 14-19 5-7-1-5-10-9-8-7-15-15-11-9-18-13-19-12-24-14-27-13-24-9-24-6-28-4h-64l-25 3-18 4-31 9-16 5-17 8-18 10-19 13-22 18-13 12-13 14-1 2h-2l-2 4-14 26-7 17-8 27-2 12v20l2 21 7 24-1 3-16-28-7-16-9-25-7-22-6-25-2-18v-41l2-18 5-23 8-26 8-20 10-19 17-25 10-13 5-6h2l2-4 8-8 8-7 16-13 15-11 17-11 21-11 28-12 30-10 15-4 12-3 22-4z" fill="#85124A"/>
<path transform="translate(728,472)" d="m0 0h78l21 2 37 8 27 8 26 10 26 12 18 11 14 10 11 9 10 9 38 38 11 14 10 12 10 14 4 8 5 15 2-1-2 4-10 14-7 11-26 36-12 15-13 17-9 11-4-5-15-13-17-17-11-9-18-13-19-12-24-14-27-13-24-9-24-6-28-4h-64l-25 3-18 4-31 9-16 5-17 8-18 10-19 13-22 18-13 12-13 14-1 2h-2l-2 4-14 26-7 17-8 27-2 12v20l2 21 7 24-1 3-16-28-7-16-9-25-7-22-6-25-2-18v-41l2-18 5-23 8-26 8-20 10-19 17-25 10-13 5-6h2l2-4 8-8 8-7 16-13 15-11 17-11 21-11 28-12 30-10 15-4 12-3 22-4z" fill="#02C098"/>
<path transform="translate(1149,601)" d="m0 0h26l20 5 17 6 30 11 28 10 6 3 1 3-15 2-24 8-22 10-18 11-18 14-19 14-11 9-10 9-11 9-5 5-2 5 1 7 6 7 7 17 4 15 9-4 10-9 11-9 13-12 11-9 10-9 11-9 16-12 22-13 22-12 26-11 23-7 25-4h19l21 3 15 4 17 8 14 10 7 6 7 8 12 14 11 16 14 27 14 38 7 26 5 32 2 16v5l-2-3-4-15v-7l-8-31-4-8-5-12-9-17-10-14-4-7-6-6v-2l-4-2-3-3v-2l-4-2-8-7-2-1v-2l-5-1v-2l-4-1-4-2-9-3v-2l-8-1v-2l-15-1-8-1h-8l-19 2-24 6-9 4-15 5-18 8-12 6-17 10-15 10-7 5h-3v2h-3v2l-5 2-1 3-10 7-2 2-5 4h-2v2h-3l-2 4h-2l-1 3-7 5-4 4-8 6-1 2h-3l-2 4-5 4h-2v2l-4 4h-2v2l-4 4h-2v2h-2v2l-11 9-6 5-5 6-7 5-5 6-14 14h-2l-1 3-4 4h-2l-2 4-3 3h-2l-1 3-10 8-5 5-8 7-5 5h-2l-1 3-3 3h-3l-1 4-9 7-4 4h-2v2h-2v2h-2v2l-10 8-12 10h-2l-2 4-8 6h-2l-1 3-11 8-3 1-2 4-13 10h-2v2l-12 7-12 9-6 3-10 7-5 2-1 2h-3v2l-14 7h-2v2l-6 3-2 2-8 3-8 4-10 4-9 4-7 3-6 2-4 1-1 2-7 2h-5v2l-9 2-9 3-9 2-3 1-14 3-7 1-3 1-40 6-17 1h-13l-25-2-29-5-16-5-7-3-5-2-8-2-6-2-30-15-10-7-9-6-4-4-5-3-11-9v-2l-4-2-2-4h-2l-5-5-10-11-7-8-6-8-5-5-6-9-8-13-4-7-6-11-5-10-8-17-5-10-6-16-7-18-3-10-3-11-1-5-1-9h-3l-5-23-1-6-2-16-1-13-1-3-1-19 1-5 2 2 3 24 5 30 7 25 7 21 11 27 10 19 12 20 10 14 9 11 11 12 7 8 13 13 11 9 15 11 16 10 21 11 16 7 18 7 27 7 23 3h45l28-3 36-9 27-10 18-8 22-12 21-12 18-12 16-12 13-9 13-10 11-8 11-9 14-11 13-11 14-11 13-11 10-8 7-7 8-7 13-12 4-5-8-15-5-15-5-18-8 5-10 8-13 11-12 11-10 9-15 13-20 18-13 11-8 7-12 10-13 10-18 13-12 9-18 12-11 7-11 6-3 3-17 9-20 10-8 5-7 3-12 4-11 5-18 6-14 5-30 4-10 3h-10l1-3 22-7 26-11 27-14 16-11 15-10 19-14 14-12 11-9 28-24 31-29 31-31 7-8 24-24 7-8 13-15 12-14 14-19 7-9 12-15 13-17 11-14 13-18 14-20 7-11 7-9 4-6 8-9h2l2-4 14-14 15-10 11-5 13-4z" fill="#E0829F"/>
<path transform="translate(728,472)" d="m0 0h78l21 2 37 8 27 8 26 10 26 12 16 10 4 5 7 6 9 11 1 4h2l1 7 4 6 1 4 3 8 1 7-1 12-3 4-8-11-4-2v18l-3 2-17-10-16-8-16-7-23-9-26-7-11-3-16-3-2-1-47-7h-53l-21 2-31 5-24 6-22 7-16 6-26 13-15 9-18 13-12 11-13 13-7 8-13 18-6 10-7 14-5 11-6 16-6 20-3 15-2 16-2 51v23l3 13 2 21 7 24-1 3-16-28-7-16-9-25-7-22-6-25-2-18v-41l2-18 5-23 8-26 8-20 10-19 17-25 10-13 5-6h2l2-4 8-8 8-7 16-13 15-11 17-11 21-11 28-12 30-10 15-4 12-3 22-4z" fill="#70DFC5"/>
<path transform="translate(1380,716)" d="m0 0h10l16 2 5 1v2l8 1v2l6 1 7 3 4 2v2l5 1v2l4 2 10 8 5 6 5 5 7 8-1 2-6-4-5-5-8-6h-6l-7-3-11-5-7-2-1-1-14-1-7-1h-11l-2 1-10 1h-2l-21 5h-4l-1 2-6 3-9 6-7 4-8 4-3 1-2 4h-3v2l-9 5h-3l-1 3-6 3-5 4h-2l-2 4h-2v2l-2 1-2 5-7 4-4 4-4 1-1 3-4 1v2h-2l-2 4-5 1-2 4-10 9h-2v2l-4 4h-3v3l-6 5h-2l-2 4-8 7-5 3-3-1 2-5 5-5 4-2 1-4 3-1-1-2-5 2-4 3h-2l-2 4-4 2v2l-7 6h-2l-2 4-5 2-1 5h-2l-1 3h-2l-1 3h-2l-2 4-10 12-5 5h-2l-1 4-3 1v3l-4 1v3l-5 5-5 7h-2l-2 4-7 8h-2l-2 5-7 7-5 4-6 8h-2l-2 4h-2l-2 4h-2l-1 3-6 5h-2l-2 4-3 1-2 4-8 7-4 4h-2l-1 4-5 5-3 2-1 4-7 2-1 5-10 7-3 3h-3v2l-6 4-11 9-5 3-1 2h-2v2l-7 3h-3v2l-7 3-6 1-1 2-6 3h-2v3l-9 5-3 3-5 3-5 4-7 4-15 10h-2v2l-8 4-9 6-9 5-7 3-12 6-3 1-2 2-6 2-11 5-4 2-6 2-4 2h-4v2l-13 4-9 3-18 4-7 2-13 2h-5l-1 2-24 2-5 1-6 1-8-1-4 1-5 1-1 2-8-1-2-4-7 1-4-2h-8l-11-4-13-1v-2h-4v-2h-8l-3-2-5-1-13-4-9-3-11-4-16-6v-2l-5-1-10-4-3-1v-2l-5-2-8-4v-2h-3v-2l-3 1v-2l-4-2-2-3 6-3 1 4h8l2 2 16 8 9 3v2l6 1-1-3-11-6-4-1-6-5-6-2-3-3v-2h-6l-4-4-7-3-4-4-3-2v-2l-5-2-1-3-5-1-6-7-4-2-2-2v-3h-2l-5-5v-2l-3-1-1-5-4-1-4-4v-4l-4-1-3-3v-2h-2l-1-3-4-4-2-5-7-12-4-3-1-3-3-3-6-11 1-5 1-4h2v-4l-3-1v-6l-2-6-3-4-1-3 1-2h-2l-2-4-1-6h-2l-1-6-2-1v-3l-2-3-3-9h-2l1-6h-3l-1-7-2-5-2-1-2-5-2-8v-5h-2l-3-15 2-3 3 12 3 5 3 8-2-9-2-7-1-7-2-7-1-4 2-4 2 12 4 11 1 4 4 14 5 12 6 16 3 5 3 7 9 19 4 8 6 11 3 5 10 16 4 6 2 4 3 1 7 9 2 4 3 1 9 11 6 5v2h2l4 5 2 1v2l4 2 9 8 5 3 6 5 9 6 13 8 19 9 4 2 42 14 29 5 25 2h13l17-1 42-6 4-2 8-1 12-2 8-3 5-1 8-3h7v-2l6-2h6l1-3 4-1 9-3 11-5h2l1-2 9-3 12-6 5-2 4-3h3v-2l14-7h2v-2h3l1-3 8-4 10-7 7-4 10-7 8-5h2v-2l11-8 5-4 5-5 10-7 5-5 7-5 5-5 10-8 8-7h2v-2h2v-2h2v-2l8-7 7-5 1-3h3l1-3 7-6h2l2-4 4-2 1-3 4-3h2l1-3 5-4h2l1-3 8-7 6-7 8-7 12-12 4-5 5-4h2l2-4h2l2-4 11-9 3-3h2v-2h2v-2h2l2-4h2v-2h2l2-4h2v-2l8-6 1-2h3l2-4 8-6h2l2-4 6-4 5-6h3v-2l4-1 2-4 9-6 8-7h2v-2h3v-2l7-4 15-10 16-10 16-8 12-5 14-6 7-2 9-4 14-4 10-2z" fill="#A1194C"/>
<path transform="translate(1358,682)" d="m0 0 8 1h11l6 2h2l1 2 5-1 8 3 3 3 1 12 3-1v-9l1-2 8 1 8 2 1 3 10 5 3 4 5 2 3 5v2l5 2 4 4 8 10 4 7 8 12 1 3h2l1 4 3 2 2 7 2 2v3h2l2 6h2l2 6v3l2 2 1 7 1 4 3 7 6 23 3 3 5 36v5l-2-3-4-15v-7l-8-31-4-8-5-12-9-17-10-14-4-7-6-6v-2l-4-2-3-3v-2l-4-2-8-7-2-1v-2l-5-1v-2l-4-1-4-2-9-3v-2l-8-1v-2l-15-1-8-1h-8l-19 2-24 6-9 4-15 5-18 8-12 6-17 10-15 10-7 5h-3v2h-3v2l-5 2-1 3-10 7-2 2-5 4h-2v2h-3l-2 4h-2l-1 3-7 5-4 4-8 6-1 2h-3l-2 4-5 4h-2v2l-4 4h-2v2l-4 4h-2v2h-2v2l-11 9-6 5-5 6-7 5-5 6-14 14h-2l-1 3-4 4h-2l-2 4-3 3h-2l-1 3-10 8-5 5-8 7-5 5h-2l-1 3-3 3h-3l-1 4-9 7-4 4h-2v2h-2v2h-2v2l-10 8-12 10h-2l-2 4-8 6h-2l-1 3-11 8-3 1-2 4-13 10h-2v2l-12 7-12 9-6 3-10 7-5 2-1 2h-3v2l-14 7h-2v2l-6 3-2 2-8 3-8 4-10 4-9 4-7 3-6 2-4 1-1 2-7 2h-5v2l-9 2-9 3-9 2-3 1-14 3-7 1-3 1-40 6-17 1h-13l-25-2-29-5-16-5-7-3-5-2-8-2-6-2-30-15-10-7-9-6-4-4-5-3-11-9v-2l-4-2-2-4h-2l-5-5-10-11-7-8-6-8-5-5-6-9-8-13-4-7-6-11-5-10-8-17-5-10-6-16-7-18-3-10-3-11-1-5-1-9h-3l-5-23-1-6-2-16-1-13-1-3-1-19 1-5 2 2 3 24 5 30 2 8v7l5 18 1 5 2 9 5 17 4 10 2 9h2v2h2l2 6v4h2l6 12 6 9 4 7h2v4l4 1 1 4 4 4 1 3 4 3 5 8 4 2 2 5 4 3 4 2v2l3 1v2l5 2 6 8 2 1v2l4 2v2l3 1v3l5 1 6 9 2 1v-2l6 2 5 3v2l6 2 1 2 5 2 15 8 4 1v2h7l4 3 24 12 10 2 2 2 12 4 10 2 4 2 16 2 4 1 12 2 10 1 2 4h-3v2l-18 2-17 1 4 2 9 1 3 1 6-1 22-2 9-2 10-1 1-1h6l6-2 27-7 20-6 16-3 7 1 9-4 13-4 11-7 6-2 7-4 6-3h2v-2l14-8h2v-2h2v-2l6-3 1-2 5-2 1-2 3-1 1-2 5-3 13-10 4-3 7-6 5-2v-2l6-4h2l1-3 8-5v-2h2v-2h2v-2h3l2-4h2v-2l8-6 6-7h2l1-3h3v-2l11-9h2l1-3 8-7 3-1 1-3h2v-2l8-7 31-31h2v-2l6-5h2l-2 5-16 16-5 6-6 5-7 8-1 2 6-3 3-3h2v-3l8-5 1-2h2l2-4 6-4 16-16h2l1-4 8-4 4-6 4-2 5-7 6-5h2v-3h2l1-3 4-1 1-4h2l2-4 5-4 7-8h2l2-4h2l2-4 4-5h2l1-3 3-2 1-3 5-3 4-4h2l2-4h2v-2l8-6 14-14 5-4 7-6h2l2-4 6-4 5-5 5-2v-2l8-7 16-12h2v-2l10-8 12-6h2v2l-10 8-11 8-7 7-1 2h2v-2l11-7 11-8 5-2v-2l13-8 16-8 4-1 1-2 11-4 10-4 8-2 12-2 7-1z" fill="#DA6888"/>
<path transform="translate(958,523)" d="m0 0 4 1 13 9 11 9 10 9 38 38 11 14 10 12 10 14 4 8 5 15 2-1-2 4-10 14-7 11-26 36-12 15-13 17-9 11-4-5-15-13-17-17-11-9-18-13-19-12-24-14-27-13-24-9-24-6-28-4h-64l-25 3-18 4-31 9-16 5-17 8-18 10-19 13-22 18-13 12-13 14-1 2h-2l-2 4-14 26-6 13-1-2 5-12 2-7 2-1 8-16 6-9h2l2-4 5-5 6-5 1-2h2l2-4 4-4h2v-2l4-3h2v-2l17-13 8-6 5-7h2v-2l7-5 5-5 10-7 1-2h3v-2l13-6 9-2 10-4 16-8 20-8 8-3h3v-2l15-5 18-4 11-3 14-2 6 1 1 5h20l12-1h14l33 2 25 3 17 5 9 1 3 2 18 5 2 2 13 4 17 7h7l9-4 4-6 3-1 7 4 10 1 2-5 1-3-4 2-1-5 1-12-1-9h5v2l6 2-2-3-2-6-1-8 2-4 1-13-3-12-2-5-3-6-1-5v-3h-2l-4-7-3-3v-2l-3-1-5-6-7-5z" fill="#055464"/>
<path transform="translate(1490,911)" d="m0 0 2 1-7 25-8 22-10 21-9 15-14 22-13 17-12 13-17 17-11 9-15 11-21 13-23 11-18 7-23 6-19 3h-30l-11-2-14-5-15-8-15-10-10-8-9-11-2-4-6 3 2-4 10-17 10-16 20-30 16-23 5-7 1 2-1 3 9 4 12 7 32 14 18 8 16 5 7 1h27l20-3 21-7 22-9 20-13 11-9 10-9 8-7 8-10 6-8 9-17z" fill="#055464"/>
<path transform="translate(1149,601)" d="m0 0h26l20 5 17 6 30 11 28 10 6 3 1 3-15 2-24 8-22 10-18 11-10 8h-2l1-3 4-4 2-5 4-4h2v-3l-9-3-12-1-14 1-10 2-7 2-14 6-3 1-1 3-5 1v2h-3l-2 4-6 5-1 2h-2l-2 4-6 8h-2v2h-2l-2 5-2 3h-2v2h-2v4h-2v2h-2l-2 5-2 3h-2l-2 4-6 8h-2v2l-5 5-4 7h-3l-1 4-3 3-4 5h-2v2h-2v3l-5 4-2 4-5 3-2 4h-3l-1 4h-2v2l-2 1-1 3-5 1 1 3-5 1-1 5-3 1-2 4-4 2v2h-2v2l-6 5h-2v2l-8 7-6 7-5 4h-2v2l-5 5-3 1-2 4-3 1v3h-3l-2 4-8 6h-3l-1 5-2 2h-3v2h-2l-2 5h-2v2h-2v2l-5 1-2 4-5 6-5 1-1 3-5 5-5 3h-2l-2 4-3 3h-3l-1 3-5 4-5 2-5 5-5 3-5 5-3 4-6 3-3 4-7 4-4 3-5 1v2l-7 5-8 4-3 3-5 3-5 5-13 8-24 12-14 8-10 4-9 4-10 4-8 3-10 2-11 4 6 2v1l-15 2-10 3h-10l1-3 22-7 26-11 27-14 16-11 15-10 19-14 14-12 11-9 28-24 31-29 31-31 7-8 24-24 7-8 13-15 12-14 14-19 7-9 12-15 13-17 11-14 13-18 14-20 7-11 7-9 4-6 8-9h2l2-4 14-14 15-10 11-5 13-4z" fill="#FCC065"/>
<path transform="translate(1396,790)" d="m0 0h7l2 2-5 3-14 8-17 12-13 11-10 9-8 8-8 7-11 12-12 13-9 10-10 11-7 8-9 10-11 15-20 28-9 12-7 13-4 4-16 23-22 33-11 18-10 16-8 11-12 13-12 11-15 11-13 8-16 6-23 6-43 4-58 5h-9l1-4 29-14 20-11 15-10 16-12 18-14 10-9 11-9 11-10h2l1-3 5-5 13-12 10-10 7-8 8-7 54-54 7-8 13-13 8-6 12-13 8-8 7-8 36-36 8-7 10-9 9-9 11-9 14-12 17-11 21-12 9-4 14-3z" fill="#FDC065"/>
<path transform="translate(1178,654)" d="m0 0 12 1 9 4v3h-2l-2 4-3 3-1 4-4 3-3 5-28 21-13 11-10 9-8 6-3 7 1 7 6 7 7 17 4 15 3 1-12 11-8 7-13 13-8 7-12 11-8 7-11 10-11 9-5 4-6-9-6-14-6-23-1-2-8 5-10 8-13 11-12 11-10 9-15 13-20 18-13 11-8 7-12 10-13 10-18 13-12 9-18 12-11 7-11 6-3 3-17 9-20 10-8 5-7 3-12 4-11 5-18 6-14 5-7 1h-12l-3-2 12-5 17-4 9-4 10-4 7-4 7-3 16-8 13-7 14-8 8-5 4-5 5-3 6-4 7-4 3-1v-2l8-4 5-4 4-2 5-5h3l2-6 8-6 5-3h2l1-3 6-2 5-6 5-1 2-4 5-5h3l2-4 4-4 5-1 2-4 5-6 5-1v-2h2v-2l3-3 1-2h2v-2l4-2 2-5 6-3 7-7h3v-3l7-6 4-5h2v-2l5-4h2l2-4h2l2-4 6-6h2v-2l6-5h2v-2h2v-2l5-4 4-4 1-4 4-2v-2l5-1 1-4h2v-2h2l1-4 3-1 3-5 4-1 2-5 3-3h2v-3h2v-2h2l1-3h2l2-5 2-1 1-3h3l2-6 5-6h2v-2h2l2-4 6-8h2l2-5 2-3h2v-2h2v-4h2v-2h2l2-6h2v-2h2v-2h2l2-4 6-8h2l2-4 6-5 1-2h3v-2l5-2 4-4 14-6 18-4z" fill="#B06F18"/>
<path transform="translate(1380,716)" d="m0 0h10l16 2 5 1v2l8 1v2l6 1 7 3 4 2v2l5 1v2l4 2 10 8 5 6 5 5 7 8-1 2-12-13-10-10-13-8-8-4-10-4-19-5-21-2-24 3-13 4-10 3-7 3-4 1-1 2-7 3-8 6-4 5-7 3-3 3-7 4h-4v2l-3 3-3 6-1 5-2 1-1 9-2-2v-4h-8l-4 1v2l-6 5-6 4-3 3-9 6h-2l-2 5-5 4-1 2h-2l-1 3h-2v2l-8 7h-2v2l-4 1v2l-5 5-4 3h-2l-2 5-4 3h-2l-2 4-5 6h-2v2h-2l-2 4-5 6-8 7-2 4h-2l-1 5 1 3 2 1-1 3-10-1-4 4h-3l-2 4-5 5h-2l-2 5h-2v2l-8 7-3 1v3h-3l-1 4h-2l-2 4h-2l-2 4-8 8-3 1-2 4-9 9h-2l-1 3h-2v2h-2l-2 4-6 5h-2l-1 4-5 3h-2l-1 3h-2l-2 4-5 5-6 4-5 5-4 2v2l-11 8-5 5-7 6-5 2v2h-2v2h-3v2l-12 8-1 2-5 2-5 6-9 5h-2l-1 3-8 6-7 4-15 10-7 4-12 7-8 4-7 4-10 4-7 4-6 2-26 10-26 8-18 4-17 3-13 2-20 2h-8l-4-1-23-3-2-1-10-1v-2h-11l-11-3-7-2-8-2v-2h-7l-19-8-7-1v-2l-9-2-7-2-9-5-9-6-3-1v-2l-5-2-6-3-4-3-8-4-5-4-6-3-1-3-4-1v-2l-4-1-12-10-1-2-7-4v-3l-4-1v-2l-4-2-4-6-10-10-4-5-3-2-3-5-4-6-2-1-1-3-4-4-7 1h-8v-2l-4-1-2-4 1-5 5-2v-2l3-2-1-4-3-7-5-9-3-6-3-5-2-5-3-6-6-16v-4h-2l-1-4-4-8-4-11-3-10-2-7-1-7-2-7-1-4 2-4 2 12 4 11 1 4 4 14 5 12 6 16 3 5 3 7 9 19 4 8 6 11 3 5 10 16 4 6 2 4 3 1 7 9 2 4 3 1 9 11 6 5v2h2l4 5 2 1v2l4 2 9 8 5 3 6 5 9 6 13 8 19 9 4 2 42 14 29 5 25 2h13l17-1 42-6 4-2 8-1 12-2 8-3 5-1 8-3h7v-2l6-2h6l1-3 4-1 9-3 11-5h2l1-2 9-3 12-6 5-2 4-3h3v-2l14-7h2v-2h3l1-3 8-4 10-7 7-4 10-7 8-5h2v-2l11-8 5-4 5-5 10-7 5-5 7-5 5-5 10-8 8-7h2v-2h2v-2h2v-2l8-7 7-5 1-3h3l1-3 7-6h2l2-4 4-2 1-3 4-3h2l1-3 5-4h2l1-3 8-7 6-7 8-7 12-12 4-5 5-4h2l2-4h2l2-4 11-9 3-3h2v-2h2v-2h2l2-4h2v-2h2l2-4h2v-2l8-6 1-2h3l2-4 8-6h2l2-4 6-4 5-6h3v-2l4-1 2-4 9-6 8-7h2v-2h3v-2l7-4 15-10 16-10 16-8 12-5 14-6 7-2 9-4 14-4 10-2z" fill="#C32453"/>
<path transform="translate(737,512)" d="m0 0h21l2 1v2l-16 4-22 5-27 8-31 12-8 4-1 2 9-2 21-8 13-4 44-10 21-4 11-2 11-1h24l26 3 31 5 13 3 5 3-2 5 10 3 17 4 27 9 19 8 16 10h2l2-4 2 1v3l4 2v2h2v2l9 1-1 13-3 4-8-11-4-2v18l-3 2-17-10-16-8-16-7-23-9-26-7-11-3-16-3-2-1-47-7h-53l-21 2-31 5-24 6-22 7-16 6-26 13-15 9-18 13-12 11-13 13-7 8-13 18-6 10-7 14-5 11-6 16-6 20-3 15-2 16-2 51v23l3 13 1 12v12l-3-4v-3l-4-4-1-8-3-10-2-6-3-5v-2h-2l-1-13-2-4v-8l-1-1v-11l-1-9v-3l-1-10v-11l2-26 4-24 4-16 3-1 1 1v10l-1 19 1 7 1 1 6-23 7-21 9-21 8-16 5-7 1-3h2l2-5 9-13 9-11 2-3h2l2-4 9-10 2-3h2l2-4 3-1v-2l10-8 14-11 10-7 20-12 15-8 14-5 10-4 16-5 15-3 16-4 17-3z" fill="#3FD2B2"/>
<path transform="translate(760,1263)" d="m0 0h16l5 4 7 11 12 18 9 13 11 16 9 13h3l13-19 10-14 20-30 8-11 6-1h15l7 2 1 2v58l-1 83-3 2-8 1h-17l-3-1-1-6v-65l-1-13-5 3-22 33-8 10-5 3-16-1-7-6-13-19-13-18-4-4h-2l-1 4v73l-2 5-8 2h-13l-7-2-2-5-1-70v-69l1-1z" fill="#FCC066"/>
<path transform="translate(773,584)" d="m0 0 37 1 36 6 22 5 10 2 21 6 13 4 10 4 12 5 17 9 6 3 7 2 11-1 3-2h2l2-6h1v12l4-1-1 7-2 2-10-1-8-4-4 4-3 4-10 3-8-1-19-8-9-3-7-3-14-4-1-1-12-2-14-4-36-4-25-1h-14l-9 1h-18l-3-3v-3h-7l-17 3-9 2-23 6-4 2h-4v2l-24 9-12 5-15 8-9 3-9 2-8 4h-2v2h-3l-2 4-12 8-5 5-4 2v2l-5 5-4 5-14 10-7 6h-2v2l-4 3h-2v2l-7 6-1 2h-2l-2 4-5 4h-2l-2 4-3 4h-2l-2 4-7 12-3 6-1-3 5-11 1-4 4-10 9-16 9-15 5-6 2-4h2l1-5 2-3h2l2-4 13-13 5-6h2l2-4 4-2v-2l6-5h2v-2l10-7h2l1-3 7-5 5-3h3v-2l19-9 10-6 24-9 27-7 32-6 23-3z" fill="#02A188"/>
<path transform="translate(355,1263)" d="m0 0h14l5 4 13 19 10 13 12 17 13 18 8 10 6 6 1-8v-77l1-1 15-1h11l6 2v140l-2 4-7 2h-8l-11-3-6-5-10-13-13-18-10-14-13-18-10-13-5-5-1 9-1 7 2 3v68l-5 2h-12l-13-1-2-4-1-20v-121l1-1z" fill="#FCC066"/>
<path transform="translate(1172,1263)" d="m0 0 62 1 16 3 18 8 11 8 9 12 7 14 5 25v9l-3 16-6 15-7 11-6 7-14 9-12 5-9 2-17 2-17 1h-45l-1-18v-128l1-1zm25 30-1 1v87h34l12-4 11-7 7-8 4-8 2-15v-11l-4-13-7-9-9-7-8-4-12-2z" fill="#FCC066"/>
<path transform="translate(1366,702)" d="m0 0 10 1h9l14 4 7 3 9 3 4 2 7 3v2h3l2 2 4 2v2l6 1 1 3 4 2 5 6 4 2v3l4 1 1 3 3 1v3h2l4 4 2 1v4l4 2 3 6 3 5 2 1 1 4 5 9 1 4h2l4 5 1 4 3 7 6 23 3 3 5 36v5l-2-3-4-15v-7l-8-31-4-8-5-12-9-17-10-14-4-7-6-6v-2l-4-2-3-3v-2l-4-2-8-7-2-1v-2l-5-1v-2l-4-1-4-2-9-3v-2l-8-1v-2l-15-1-8-1h-8l-19 2-24 6-9 4-15 5-18 8-12 6-17 10-15 10-7 5h-3v2h-3v2l-5 2-1 3-10 7-2 2-5 4h-2v2h-3l-2 4h-2l-1 3-7 5-4 4-8 6-1 2h-3l-2 4-5 4h-2v2l-4 4h-2v2l-4 4h-2v2h-2v2l-11 9-6 5-5 6-7 5-5 6-14 14h-2l-1 3-4 4h-2l-2 4-3 3h-2l-1 3-10 8-5 5-8 7-5 5h-2l-1 3-3 3h-3l-1 4-9 7-4 4h-2v2h-2v2h-2v2l-10 8-12 10h-2l-2 4-8 6h-2l-1 3-11 8-3 1-2 4-13 10h-2v2l-12 7-12 9-6 3-10 7-5 2-1 2h-3v2l-14 7h-2v2l-6 3-2 2-8 3-8 4-10 4-9 4-7 3-6 2-4 1-1 2-7 2h-5v2l-9 2-9 3-9 2-3 1-14 3-7 1-3 1-25 4h-8l2-2 13-2 17-4 13-4h7v-2l13-5 4-1 8-4 8-3h2l2-2 8-1v-2l10-4 8-4h4v-2l5-1v-2l10-4 7-5 8-4h2v-2h4l1-2 4-1v-2l14-8h3v-2l10-6 3-4 7-3 3-3 6-5 10-5 2-4 3-1 2-2 4-3h3v-2l8-7 6-4 1-2h2v-2h2l1-3 8-6h2l2-4 4-4h2v-2l5-3h2l1-3 9-8 5-4 5-6 6-4 1-2h2v-2l10-10 3-1v-2l8-7 5-4 4-5 7-7h2v-2l8-7h2v-2l4-4h2v-2h2v-2h2v-2l5-5 3-1v-2l4-2 4-6 5-3 1-2h2v-2l5-4 4-5h2l2-4 3-1v-2l7-6 5-6 6-4 10-10h2v-2l5-3h2v-2l7-6h2l1-3h3l1-3 4-1v-2h3l2-5 6-4h2v-2h2v-2h2v-2l8-6h2v-2h3l2-4 4-1v-2h3v-2l11-8 5-3h2v-2l14-9 16-9 14-5 8-3 9-3 12-3 10-1 2 1v-2h15z" fill="#D54C70"/>
<path transform="translate(575,1263)" d="m0 0 5 1 1 86 3 17 5 8 5 4 7 3 11 1 10-3 9-6 5-10 2-12 1-87 1-1h31l1 5-1 94-3 13-6 12-8 10-8 7-11 5-14 4-6 1h-10l-15-3-12-5-11-7-9-11-5-10-4-17-1-7v-91z" fill="#FDC066"/>
<path transform="translate(1374,1263)" d="m0 0h68l25 1 1 1v13l-1 9-2 3-3 1h-58l-1 32 28-1h16l14 1 1 1-1 25-2 1-53 1-3 1v32h66l2 2v11l-1 11-3 3h-93l-3-1-1-4-1-25v-115l1-2z" fill="#FBBF66"/>
<path transform="translate(1022,1263)" d="m0 0h45l21 1v24l-1 2h-63v32h51l7 1 1 1v24l-1 2h-58v34h65l1 1v22l-2 3-3 1h-87l-5-2-1-2-1-73v-67l1-3z" fill="#FDC066"/>
<path transform="translate(1534,1263)" d="m0 0 27 1 3 3 20 55 14 35 2 4 5-12 14-36 16-45 3-4h33l1 2-11 29-14 35-19 52-10 24-4 3-13 2h-14l-4-2-4-8-10-26-11-30-13-33-12-30-5-14v-4z" fill="#FDC066"/>
<path transform="translate(958,523)" d="m0 0 4 1 13 9 11 9 10 9 10 10-2 3 1 3h2l5 6 4 11 2 11 2 14v23l-5 17-2 6h-7l-7 1-4-2-2-5-13-1-1 3h-2l-1 4-5 4h-2l-2 4h-7l-10-3-10-4-10-5-25-10-9-3-14-4-17-3-2-1-25-3h-8l-25 3-15 3-11 1-15 3-2 1-10 1-2 2 26 1v1l-54 1-25 3-18 4-31 9-16 5-17 8-18 10-19 13-22 18-13 12-13 14-1 2h-2l-2 4-14 26-6 13-1-2 5-12 2-7 2-1 8-16 6-9h2l2-4 5-5 6-5 1-2h2l2-4 4-4h2v-2l4-3h2v-2l17-13 8-6 5-7h2v-2l7-5 5-5 10-7 1-2h3v-2l13-6 9-2 10-4 16-8 20-8 8-3h3v-2l15-5 18-4 11-3 14-2 6 1 1 5h20l12-1h14l33 2 25 3 17 5 9 1 3 2 18 5 2 2 13 4 17 7h7l9-4 4-6 3-1 7 4 10 1 2-5 1-3-4 2-1-5 1-12-1-9h5v2l6 2-2-3-2-6-1-8 2-4 1-13-3-12-2-5-3-6-1-5v-3h-2l-4-7-3-3v-2l-3-1-5-6-7-5z" fill="#047B77"/>
<path transform="translate(1483,931)" d="m0 0 1 4-1 8-8 21-11 21-12 20-8 12-13 17-12 13-17 17-11 9-15 11-21 13-23 11-18 7-23 6-19 3h-30l-11-2-12-4-7-20v-7h3v-4l4 1 1 6h2v-10l3-5 10 1 14 3 15 1 21-1 19-3 17-5 17-6 22-11 18-11 13-10 3-3 6-4 4-4 8-6 12-10 8-7 7-7 8-10 5-7 5-5 4-6h3l2-5 2-3 2-6 6-10z" fill="#3FD2B2"/>
<path transform="translate(1491,717)" d="m0 0 5 1 10 6 10 9 11 11 9 11 11 16 8 16 8 20 7 22 4 21 1 8v46l-6 29-6 22-8 16-9 16-11 15-9 10-13 13-10 8-16 10-7 3-3-1 8-11 11-13 12-18 13-25 8-22 6-22 4-25 1-16v-54l-4-23-7-25-6-16-8-16-10-18-8-13z" fill="#A31B4E"/>
<path transform="translate(1396,790)" d="m0 0h6v2l-7 3-12 6-14 9-10 7-10 6-13 8-11 8-4 2v2h-2v2h-2v2l-8 7-8 8-4 3h-3v2l-8 7-3 1-1 3-8 7-6 7-1 3h-2v2h-2l-2 4-11 12-1 2h-2v2l-4 4h-2v2h-2v2l-6 5-2 4-6 5-3 4-1 4h-3l-2 4-4 4-2 4-6 5-1 2h-2l-2 5-1 3h-3l-1 4h-2l-2 5-10 12h-2l-2 4-5 6-4 6-7 10-2 2-1 3-2 2-3 5-1 2h-2l-1 4-3 1-2 5-4 5-5 5-1 3h-2v2h-2v2l-9 7h-2v2l-3 2h-3l-1 3h-2v2l-9 5h-2l-1 3-6 3-5 3-6 2-11 3-12 4h-6l-2-2 4-6 1-4 2-5 8-6 7-6 3-5 10-9h2l1-3 5-5 13-12 10-10 7-8 8-7 54-54 7-8 13-13 8-6 12-13 8-8 7-8 36-36 8-7 10-9 9-9 11-9 14-12 17-11 21-12 9-4 14-3z" fill="#AF6E18"/>
<path transform="translate(1014,579)" d="m0 0 2 1v2l4 2 7 7 7 8 3 3-5 6-4-1-6-6v2h-2v2l3 1 6 11 7 9 3 3 2 10 4 3 3 8 5 11 5 8v5l-4 6-7 4-2 1-11 1v-2l-4-2v-2h-2l-3-8-3-5-9-3-4 2-3 7-5 8-5 3h-9l-10-6v-2l-18-4-22-1-21-7-19-6-8-2-1-1-16-3-7-1-1-1-21-3-4-1h-10l-5 3-2 1-20-4-26-3-31-1 2-3 15-2 8-2 9-2 17-2 17-3 21-2 14 1 15 2 8 2 12 2 13 4 9 3 19 8 13 5 7 4 14 4 2 1h7l5-5 4-3 1-3 3-3h11l4 4v2l7 1 6-1 5 1 2-10 4-13v-23l-2-14z" fill="#04616B"/>
<path transform="translate(1149,601)" d="m0 0h26l20 5 17 6 30 11 28 10 6 3 1 3-15 2-24 8-21 9v-2l3-2h4v-2l4-2h5v-2l8-3-2-8-7-6-14-5-8-4-23-8-17-1-15 5-2 2-13 4-6 2h-9l-7 3-3 3h-2v2h-2l-1 4-8 7-3 4h-2l-2 4-15 15h-2l-1 4-5 4-2 4h-2l-2 7-3 3-3 6h-2l-2 4-4 6h-2l-2 6h-2v2h-2l-2 6-2 4-5 5-6 8h-2l-2 5h-2l-2 4-7 8-4 5-5 5-3 5h-2l-2 5h-2l-2 5h-2l-3 12-4 1-1 4-4 4-3 1-1 2h-3v2l-6 3-1 2h-3l-1 4h-3l-2 4h-2l-2 4-3 4h-2l-2 4-5 6-5 5-3 5h-2l-2 4-5 4-5 7-4 4h-2l-2 4-9 8-5 4-3 3-5 1-1 3-11 8h-2l-2 5h-2l-2 4-4 4h-2v2l-6 3-5 4-6 7-6 3-9 8-7 6h-2v2l-5 3-7 7h-3l-2 4v3l-5 1-11 8h-2v2l-5 2-1 4-10 6-4 4-10 6-9 4-5 3-8 5h-3v2l-4 2h-3v2l-4 2-4 3-10 3-6 2 6 2v1l-15 2-10 3h-10l1-3 22-7 26-11 27-14 16-11 15-10 19-14 14-12 11-9 28-24 31-29 31-31 7-8 24-24 7-8 13-15 12-14 14-19 7-9 12-15 13-17 11-14 13-18 14-20 7-11 7-9 4-6 8-9h2l2-4 14-14 15-10 11-5 13-4z" fill="#FDD99C"/>
<path transform="translate(1121,731)" d="m0 0 2 1-1 7 3 5 4 5 7 17 4 15 3 1-12 11-8 7-13 13-8 7-12 11-8 7-11 10-11 9-5 4-6-9-6-14-6-23-1-2-6 4-2-1 13-13 8-7 14-13 8-7 7-7 8-7 11-9 10-9z" fill="#325068"/>
<path transform="translate(1468,957)" d="m0 0 1 3-5 8h-3l-2 5-5 6h-2l-2 5-9 10-7 8-8 8-13 10-7 6-4 1-2 4-6 4h-2l-2 4-15 11-11 7-11 6-17 8-28 9-14 3-9 1-26 1-17-2-12-3h-5l-2 5-1 9h-2l-2-6-3-1-5-8v-6l9 2-1-9-1-4 2-4 3-3 1-2 5 1h7l1-4 6-2 4-1v-2l7-1h4l1 1 11-1 3 1h39l18-4 24-3 7-2 9-5 10-3 4-2h3v-2l12-7 6-4 5-3h2v-2l16-11 4-2v-2l11-9 4-2v-2l5-2 12-14z" fill="#02C199"/>
<path transform="translate(1166,637)" d="m0 0h15l6 2 4 3 1 9v2l9 2 8 1 2 3-3 5-11 7-9 7h-2l1-3 4-4 2-5 4-4h2v-3l-9-3-12-1-14 1-10 2-7 2-14 6-3 1-1 3-5 1v2h-3l-2 4-6 5-1 2h-2l-2 4-6 8h-2v2h-2l-2 5-2 3h-2v2h-2v4h-2v2h-2l-2 5-2 3h-2l-2 4-6 8h-2v2l-5 5-4 7h-3l-1 4-3 3-4 5h-2v2h-2v3l-5 4-2 4-5 3-2 4h-3l-1 4h-2v2l-2 1-1 3-5 1 1 3-5 1-1 5-3 1-2 4-4 2v2h-2v2l-6 5h-2v2l-8 7-6 7-5 4h-2v2l-5 5-3 1-2 4-3 1v3h-3l-2 4-8 6h-3l-1 5-2 2h-3v2h-2l-2 5h-2v2h-2v2l-5 1-2 4-5 6-5 1-1 3-5 5-5 3h-2l-2 4-3 3h-3l-1 3-5 4-5 2-5 5-5 3-5 5-3 4-6 3-3 4-7 4-4 3-5 1v2l-7 5-8 4-3 3-5 3-5 5-13 8-24 12-14 8-10 4-9 4-2-1 9-5 5-3 8-2 1-2 12-7 7-4 12-7 1-2 7-4 5-4 9-5 12-10 14-10 2-2h3v-2h3l1-4 4-1v-2l5-4h2l1-3 7-6 5-5 5-2 5-5 7-6 5-5 5-4h2l1-2 7-5 3-4h2l1-3 9-9h2l1-3 8-7 6-4 2-3 5-3h2v-2h2l2-4 3-1v-2l5-5h2l2-4 4-1 1-5 5-2 2-5 6-4 1-2 5-3 6-7 1-3h2l2-4 5-5 3-4h2l2-5 10-11 2-3h2l2-5h2v-2h2l2-4 3-4h2l2-4 6-8h2v-2h2l2-6 6-5 4-5 2-3h2l2-5 8-11 5-7h2l2-6 5-5 6-8 12-15 4-1 2-4 14-9h3v-2h3v-2l10-4 16-2z" fill="#F5B041"/>
<path transform="translate(615,720)" d="m0 0 4 1-7 8-3 1-2 4-8 10-9 12-10 19-12 31-4 16-2 15-1 13v39l3 25 5 21 8 20 14 24 4 5v3l-6-2-10-8-16-16-10-15-8-17-7-21-2-9-1-11v-46l1-16 9-29 9-20 9-14 10-14 14-13 16-10z" fill="#04A289"/>
<path transform="translate(1178,654)" d="m0 0 12 1 9 4v3h-2l-2 4-3 3-1 4-8 5v-3l-7-1-20 6-16 3-1 2-4 2-2 5h5v5l-4 2-4-1v-2l-6 1-6 7-5 5-6 5-2 4-4 4-8 10-4 1v2l-9 5h-2l-2 4-5 5h-2l-2 4h-2l-2 4-9 11-4 5-9 11-5 6h-2l-2 4-5 6-5 4-5 6-3 3-1 2h-3l-2 4-4 4h-2v2l-4 4h-3l-1 4-6 5h-2l-1 3-6 2v2l-4 1v2l-4 2-5 6-7 6-3 4h-2v3h-2l-2 4-4 4-5 3-6 5-4 5-5 3-4 2v2l-3 1-5 5-7 5-3 3h-2v2l-5 3h-3v2l-6 4-3 3h-3v2l-4 2-5 5-9 6-1 2-11 6-8 5-5 2v2l-5 1-1 2-4 1v2l-4 3h-2v2l-8 4-11 7-19 10-13 6-2-1 16-8 8-5 10-5 9-6 4-5 5-3 6-4 7-4 3-1v-2l8-4 5-4 4-2 5-5h3l2-6 8-6 5-3h2l1-3 6-2 5-6 5-1 2-4 5-5h3l2-4 4-4 5-1 2-4 5-6 5-1v-2h2v-2l3-3 1-2h2v-2l4-2 2-5 6-3 7-7h3v-3l7-6 4-5h2v-2l5-4h2l2-4h2l2-4 6-6h2v-2l6-5h2v-2h2v-2l5-4 4-4 1-4 4-2v-2l5-1 1-4h2v-2h2l1-4 3-1 3-5 4-1 2-5 3-3h2v-3h2v-2h2l1-3h2l2-5 2-1 1-3h3l2-6 5-6h2v-2h2l2-4 6-8h2l2-5 2-3h2v-2h2v-4h2v-2h2l2-6h2v-2h2v-2h2l2-4 6-8h2l2-4 6-5 1-2h3v-2l5-2 4-4 14-6 18-4z" fill="#DB8F16"/>
<path transform="translate(1184,900)" d="m0 0 4 1 8 20 1 9 4 5h2l1 4-18 18-7 8-55 55-1-3-11-23-5-12v-2l-2-1 12-12 2-3h2l2-4 8-7 9-9 3-4h2l2-4 17-17 8-7z" fill="#324F68"/>
<path transform="translate(1402,790)" d="m0 0 3 2-5 3-14 8-17 12-13 11-10 9-8 8-8 7-11 12-12 13-9 10-10 11-7 8-9 10-11 15-20 28-9 12-7 13-4 4-16 23-22 33-11 18-10 16-8 11-12 13-12 11-15 11-13 8-16 6-23 6-43 4-58 5h-9l1-4 29-14 13-7h2v8l1 2 14-1h13l12-3 9-1h14l9-2 13-6 8-4 10-6 3-1v-2h3v-2l10-4 4-3h3v-2l3-1 1-2h2l1-2 3-3h2v-2h2v-2l7-6 7-8 3-4h2l2-5 4-2 1-5 9-14 6-9 8-14h2l1-4 7-11 3-3 4-5 6-8 3-5h2l2-6h2l2-4 7-8 5-10h2l2-4 9-11h2l2-4 7-8 3-5h2l1-4 3-4h2l2-4 12-16h2l2-4 9-9 6-7 5-4 7-8 7-9 10-10 7-8 9-9 11-9 10-7 5-5 13-8 13-7h4z" fill="#FDDA9D"/>
<path transform="translate(1491,717)" d="m0 0 5 1 10 6 10 9 11 11 9 11 11 16 8 16 8 20 7 22 4 21 1 8v46l-6 29-6 22-8 16-9 16-11 15-9 10-13 13-10 8-16 10-7 3-3-1 2-3 8-3 6-2 2-4 17-16 5-4h2l2-5h2l2-4 3-5 4-5 5-11h2l2-8 3-8h2l1-7 2-6h2l1-11 3-9 3-13 2-19 1-25-2-23-2-15-3-13-4-15-6-17-13-28-7-10-9-14-11-12-6-4-5-5z" fill="#D64F72"/>
<path transform="translate(1423,1036)" d="m0 0 2 4-6 7-17 17-11 9-15 11-21 13-23 11-18 7-23 6-19 3h-30l-11-2-12-4-4-11 1-8h4l3 7 2 1-1-2v-10l16 4 3 1h46l18-4 7-3 8-2 5-2 7-1 5-3 6 1 9-5 13-4 5-1 1-3 6-4 6-3 7-5h2v-2l4-1v-2h3v-2l7-4 4-5 5-3 3-3h3z" fill="#70DFC5"/>
<path transform="translate(1347,823)" d="m0 0v3l-4 4-7 3-5 2v2l-5 5-10 9-10 10-3 4h-2l-2 4h-2v2h-2l-2 4-13 13-8 7-4 5-3 1-4 6-4 8h-2l-1 3-6 5-2 2-4 5-4 4-1 2h-2v3h-2v2h-2l-2 4-3 1-2 5-1 2h-2l-2 6-5 5h-2l-2 4-9 10-5 8-2 4-5 5-2 5-5 5-4 6-5 5-2 4h-2v3l-5 5-2 6h-2l-2 5-2 4-3 2-1 3h-3l-2 7h-3l-2 5-3 3-4 5-5 4-7 8-2 2h-3v3l-8 5-2 2-4 1v2l-5 4-6 3-5 3-6 1-6 2-7-1v-3l-23 1-11 1-2-2 11-10 5-5 13-12 9-7v3l-8 7-5 4h-2l-2 10h-2l-1 6 9-1 20-6 8-3 4-3 5-2 3-3 7-4h2v-2l3-3 6-2v-2l6-4 3-3h2v-2h2l2-5 3-1 2-5 4-4 3-5 3-2 1-3 2-2 3-5 4-7h2l2-5 7-9 3-5h2l2-4 5-5 10-13 1-2h2l1-4h3l1-5 2-3h2l1-3 6-5 2-4h2l2-4 2-3h3l1-5 7-8h2l2-5 3-1 1-3h2v-2h2v-2h2l2-4h2v-2h2l2-4 11-12 1-2h2v-2h2l1-4 7-8 7-6 10-10h2v-2l7-4 14-14h2v-2h2v-2h2v-2l9-7h2l1-2 11-7z" fill="#F4AF41"/>
<path transform="translate(1325,836)" d="m0 0 2 1-4 4h-2v2h-2v2h-2v2l-8 7-8 8-4 3h-3v2l-8 7-3 1-1 3-8 7-6 7-1 3h-2v2h-2l-2 4-11 12-1 2h-2v2l-4 4h-2v2h-2v2l-6 5-2 4-6 5-3 4-1 4h-3l-2 4-4 4-2 4-6 5-1 2h-2l-2 5-1 3h-3l-1 4h-2l-2 5-10 12h-2l-2 4-5 6-4 6-7 10-2 2-1 3-2 2-3 5-1 2h-2l-1 4-3 1-2 5-4 5-5 5-1 3h-2v2h-2v2l-9 7h-2v2l-3 2h-3l-1 3h-2v2l-9 5h-2l-1 3-6 3-5 3-6 2-11 3-12 4h-6l-2-2 4-6 1-4 3-4 5-2 10-7 5-1 1-3 5-2h2l7-2 3-2 6-2 6-5h3l1-8 4-3h6l6-5h2l2-5h2l1-4h2l1-4 5-5v-2l6-5 5-5 1-3 6-5 3-1 3-3h2l1-4 3-1 6-7 1-3 4-1 2-5 3-5 2-1 3-5h2l2-4 8-9 9-11 4-4 3-5 5-4 1-3 6-4 1-3 5-4 4-4 4-2 1-2 3-4h2v-2h2l2-4 7-8h2l-1-3 4-2 7-9 5-4 5-6h2l2-4 5-4 4-4h2v-2l4-1v-2l4-1v-2h2v-2l6-3z" fill="#DC9017"/>
<path transform="translate(1490,911)" d="m0 0 2 1-7 25-2 1v-5l-12 21-8 11-13 15h-4v2l-10 8-3 3h-2v2l-18 13h-2v2l-7 4-14 9-4 1v2l-13 5-8 3-6 4-6 1-24 3-19 4h-40l-3-1-9 1-4-2-1 1h-7v2l-6 3h-4l-1 4-7 1-3-1-2-1-2 5h-2l-2 7 2 1v9h-6l-2-1v5l4 6v6h-3l3 14 4 9v3l-6-2-8-4-1-6h-2l-5-13v-18l4-16 4-8 2-3h10v2l5-2 4-1 1-4h3l1-3 5-4 8-2 3 1v2l9 1 1 1 15 1 3 1 4-1h39l6-2 15-4 7-1 10-3 5-2 1-1-2-2 17-5 28-11 22-14 11-9 10-9 8-7 8-10 6-8 9-17z" fill="#047A77"/>
<path transform="translate(1133,762)" d="m0 0 2 1 5 18 3 1-12 11-8 7-13 13-8 7-12 11-8 7-4 4-2-1v-1l-9 5-3 3-7-2-4-4 1-7 6-8 3-6 1-8 2-6 4-3 6 1 1-3h2l1-3 8-7 4-6 1-6 3 2v2l8-3 5-1v-2h9l1 6 3-3-2-6 2-5 3-3 1-2h3l1 2z" fill="#04616B"/>
<path transform="translate(1446,980)" d="m0 0 3 1-4 5h-2l-2 4-6 5-10 10-7 6-11 7-9 6h-2l-1 3-9 5-16 9-7 4-13 5-8 3-16 5-17 3-1 1-23 2h-9l-5-2-5-1-8 1-13-2-5-2h-11l-2 1-4 8-2 1 1 3-1 4h-2l-1-9-1-4 2-4 3-3 1-2 5 1h7l1-4 6-2 4-1v-2l7-1h4l1 1 11-1 3 1h39l18-4 24-3 7-2 9-5 10-3 4-2h3v-2l12-7 6-4 5-3h2v-2l16-11 4-2v-2l11-9 4-2z" fill="#02A289"/>
<path transform="translate(575,750)" d="m0 0 1 4-5 9 2 3-1 5-5 5-6 2-3 5-3 11-2 3v13l-1 8-2 2-2 12-1 4-1 16v20l-1 4 1 9-1 2h2l1 12 3 9 1 2 1 5 1 7 3 1 5 11 3 10 10 20h2l2 5 2 1v3l3 1 3 5 8 5v3l-6-2-10-8-16-16-10-15-8-17-7-21-2-9-1-11v-46l1-16 9-29 9-20 9-14 5-7 3-2h3z" fill="#40D2B3"/>
<path transform="translate(1223,982)" d="m0 0 1 2-1 3 9 4 12 7 8 4v2l-13 2-7 3-8 5h-6l-6-1-7 2-3 9-4 6-2 6-5 5h-2l-1 6-2 6 1 3-1 8h2v2l3 1 5 4 1 16 4 14 1 4h2l1 5-11-6-12-9-5-4-9-11-2-4-6 3 2-4 10-17 10-16 20-30 16-23z" fill="#325067"/>
<path transform="translate(1e3 562)" d="m0 0 4 1 26 26 11 14 10 12 10 14 4 8 5 15 2-1-2 4-10 14-7 11-3 4h-2l2-5 3-5-1-7-4-6-5-11-3-8-4-3-1-7v-3l-2-1-6-7-2-2-7-13-2-1 1-5 7 6 4 1 4-5-9-9-7-8-5-5-3-4-3-5-2-4h-2l-2-4z" fill="#305369"/>
<path transform="translate(1501,728)" d="m0 0 5 3 7 7 9 13 7 11 6 10 11 25 3 7 5 18 3 15 2 9 2 15 1 25-1 20-4 26-3 10-2 6-1 6h-2l-3 13h-2l-1 5-4 11h-2l-1 5-10 16-3 4h-2l-2 5-7 4 2-5 5-5h3v-5l5-5 5-8 5-10 3-11 3-7 2-10h2v-8l-2-1 1-4h2v-2l-3-1 2-9h2l-1-8v-4-2h2l1-9v-2l-1-6 2-1 4 1-2-2-2-3 1-4h2l-2-5h-2v-5h2l-2-5 1-4 1-3h-2l-2-9-1-1-1-12v-8h-2l1-7 1-4-5-2 1-6-4-13 1-3 3-2-4-10-8-16-8-14-2-2v-3l-3-1-6-10-7-4-2-3v-3h-2z" fill="#C22352"/>
<path transform="translate(1176,940)" d="m0 0 5 2 3 4v10 1 3l-38 38-1-4-6-1v2l-9 7-4-1v-6l4-9 4-6 3-10 6-12 6-5 6-2 5-8 7-1 4-1z" fill="#055464"/>
<path transform="translate(1247,1022)" d="m0 0 6 1 2 2 7 1v2l4-1 12 2 17 1h11l4-1 12-2 22-1 9-1h10l-3 4-11 3-6 2-8 1-13 3-4 2h-39l-6 1-1-1-15-1-5-2-5-1v-2l-7 1-5 2-5 5-3 1-1 3-5 3h-4v-2l-8 1-2-1-2 4-1-2 6-10h2l2-5 7-8h2v-2l5-1 5 4 6-1 4-3z" fill="#04616B"/>
<path transform="translate(946,700)" d="m0 0 15 1 8 7 9 4 5 4 4 12 2 1 5 10v2l7 1 10-8 1-2h2l2-4h2v-2h2l2-4 9-11 3-2-1 4-10 13-11 14-10 13-5 6-4-5-15-13-17-17-11-9-18-13v-1z" fill="#335067"/>
<path transform="translate(425,767)" d="m0 0 2 2 3 24 5 30 2 8v7l5 18 1 5 2 9 5 17 4 10 6 17 8 18 3 5 3 7 6 12 2 2 2 6 3 2 2 6 5 10 9 13 3 2v2l2 1 5 7 2 1v3h2v3l3 1v2l5 2 1 3 6 5v2h3l1 4 4 2v2h2l10 10 6 3 3 3v2l4 1 8 6 12 6v2l5 2 10 6 10 4 9 4 8 2v2h6l6 3 16 5 5 2 14 2 8 2v1l-13-1-19-4-18-6-7-3-8-2-6-2-30-15-10-7-9-6-4-4-5-3-11-9v-2l-4-2-2-4h-2l-5-5-10-11-7-8-6-8-5-5-6-9-8-13-4-7-6-11-5-10-8-17-5-10-6-16-7-18-3-10-3-11-1-5-1-9h-3l-5-23-1-6-2-16-1-13-1-3-1-19z" fill="#D54C70"/>
<path transform="translate(607,724)" d="m0 0 3 1-10 8-8 7-9 12-1 7 1 4-4 7-1-2h-2l-2 7-4 1-1 5-2 5-3 6-2 7-3 8-3 13-2 10-3 12v6l-1 2v34l2 16 2 7 4 13 6 14 2 9 8 16-1 2-5-8-6-14-3-10-3-6-2-1-3-8v-5l-3-7 1-2-2-1v-12h-2v-8l-1-4 1-6v-24l1-11 2-8 2-7 1-4 1-10v-8l3-5 2-9 4-6 7-3 4-4-1-6v-3l4-7v-3l-1 3-5 2 2-4 7-8 12-10 13-8z" fill="#02C098"/>
<path transform="translate(1093,780)" d="m0 0 4 4-4 9h-2v2h-2v2h-2v2h-3l-1 6 1 8h-4l-9-1-3 8 2 1 7 3 5-3 3-3 10-3 8-5 6 1-2 4-7 7-8 7-12 11-4 2v-2l-9 5-3 3-7-2-4-4 1-7 6-8 3-6 1-8 2-6 4-3 6 1 1-3h2l1-3 8-7 4-6z" fill="#055564"/>
<path transform="translate(434,865)" d="m0 0 2 4 3 9 3 7 2 5 2 1 7 18 2 3-1 2h2l3 11 3 5 3 9 2 2 3 7 4 8 5 9 4 8v5h-4v2l-5 2v5l-2 1v-10h2v-4l-3-1v-6l-2-6-3-4-1-3 1-2h-2l-2-4-1-6h-2l-1-6-2-1v-3l-2-3-3-9h-2l1-6h-3l-1-7-2-5-2-1-2-5-2-8v-5h-2l-3-15z" fill="#9E184B"/>
<path transform="translate(1044,624)" d="m0 0 5 2 3 1 5-1 2 1v2l5-1 4 7 4 10 2 7 2-1-2 4-6 8-1-3-6-2-4-2-8-12-1-5 2-7-7-2-1-5z" fill="#05626B"/>
<path transform="translate(791,965)" d="m0 0m-1 1m-1 1v3h-2v2l-5 2-1 4-10 6-4 4-10 6-9 4-5 3-8 5h-3v2l-4 2h-3v2l-4 2-4 3-10 3-6 2 6 2v1l-15 2-10 3h-10l1-3 22-7 26-11 27-14 16-11 15-10z" fill="#FDDCA3"/>
<path transform="translate(1490,911)" d="m0 0 2 1-7 25-2 1v-5l-12 21-8 11-13 15h-4v2l-10 8-3 3h-2v2l-18 13h-2v2l-7 4h-5l-15 8-10 1h-3v-2l34-13 22-14 11-9 10-9 8-7 8-10 6-8 9-17z" fill="#067977"/>
<path transform="translate(1176,940)" d="m0 0 5 2 3 4v10 1 3l-7 6 1-4-4-1-1 2-10 3-3-3 1-7-1-3 1-4 2-4h5l1-3z" fill="#04606A"/>
<path transform="translate(615,720)" d="m0 0 4 1-7 8-3 1-2 4-8 10-9 12-10 19-2 5-2-1 1-6h-2l1-5 3 1 3-6-1-4 1-7 9-12 7-7 6-4 5-4v-2z" fill="#08817B"/>
<path transform="translate(1570,880)" d="m0 0 4 1-1 5 2 6v12l-6 29-2 8-2-2-2 3 1 4-3 6h-2l-1-5h2l-1-3 4-10-1-2 2-1 1-11 4-8v-22z" fill="#DA6687"/>
<path transform="translate(1014,579)" d="m0 0 2 1v2l4 2 7 7 7 8 3 3-5 6-4-1-6-6v2h-3l-3-11z" fill="#06606A"/>
<path transform="translate(576,694)" d="m0 0m-1 1m-2 1h2l-2 4-11 9-14 12-9 9-7 8-3 4h-2l-2 4-14 26-6 13-1-2 5-12 2-7 2-1 8-16 6-9h2l2-4 5-5 6-5 1-2h2l2-4 4-4h2v-2l4-3h2v-2z" fill="#087E7A"/>
<path transform="translate(894,609)" d="m0 0h7l5 3 1 3v11l-2 2-9-1-4-3v-12z" fill="#02C199"/>
<path transform="translate(565,940)" d="m0 0 6 1 8 18 8 13 6 9v2l-4-2-8-8v-3l-3-1-1-5h-2l-6-14-4-7z" fill="#06837B"/>
<path transform="translate(1500,1018)" d="m0 0h6v6l-12 11-4 4-4 2-6 1 2-4 9-11 6-7z" fill="#A21D4F"/>
<path transform="translate(1369,1339)" d="m0 0h1l1 11 1 58 5 1h88l4-1v2l-2 1h-93l-3-1-1-4-1-25z" fill="#F9CA99"/>
<path transform="translate(648,589)" d="m0 0h6l5 5 1 5-5 5-8-1-4-5 1-6z" fill="#40D3B3"/>
<path transform="translate(862,905)" d="m0 0m-1 1m-1 1m-1 1m-1 1m-1 1m-2 1 2 1-6 8-5 5-6 3-9 8-7 6h-2v2l-5 3-7 7h-3l-2 4v3l-5 1-8 6-2-1 9-8 11-9 14-12 11-9 10-9 8-7z" fill="#FDDCA1"/>
<path transform="translate(542,917)" d="m0 0 3 3 2 8 3-1 1 8 3 2v5h5l-1 7 3-2 6 11 3 7 2 4-7-6-9-12-8-15-6-16z" fill="#0DC49D"/>
<path transform="translate(1501,728)" d="m0 0 5 3 7 7 9 13 7 11 6 10 7 15-1 3-12-23-7-11-1-4-3-1-6-10-7-4-2-3v-3h-2z" fill="#C32453"/>
<path transform="translate(967,607)" d="m0 0 5 1 1 4-2 5-1 9-5 2-3-4v-10l3-5z" fill="#40D3B3"/>
<path transform="translate(704,1018)" d="m0 0 3 1-3 2-3 1 6 2v1l-15 2-10 3h-10l1-3 20-6z" fill="#FCD7A1"/>
<path transform="translate(740,999)" d="m0 0 2 1-3 4-4 2h-3v2l-4 2h-3v2l-4 2-4 3-7 2-10 1-5 1 4-3 15-6 16-8z" fill="#FCDAA7"/>
<path transform="translate(469,1300)" d="m0 0h1v105l-2 4-7 2h-8l-5-1v-1l18-2 2-5z" fill="#FED999"/>
<path transform="translate(1081,1384)" d="m0 0h8l1 1v22l-2 3-3 1h-87v-1l85-1 3-1 2-6v-12l-1-5h-6z" fill="#FDDA9C"/>
<path transform="translate(1237,1006)" d="m0 0h2v2h-2v4l-10 5-2 3h-2v2l-3-1v-2l-5-1-1-4h-2v-2l12 1 9-6z" fill="#04606A"/>
<path transform="translate(532,681)" d="m0 0 8 1 3 4-1 5-1 1-9 1-5-5 3-6z" fill="#40D3B3"/>
<path transform="translate(1502,820)" d="m0 0 2 3 3 8 2 2 5 36v5l-2-3-4-15v-7l-6-24z" fill="#D65174"/>
<path transform="translate(394,1344)" d="m0 0 4 2v3l4 2 9 11 8 13 9 14v3l-8-10-13-19-10-13-3-4z" fill="#FDD99A"/>
<path transform="translate(1569,1372)" d="m0 0 3 4 10 25 4 6 24 2v1l-9 1h-14l-4-2-4-8-10-26z" fill="#FDDDA5"/>
<path transform="translate(1485,784)" d="m0 0h2l3 4v3h2l4 5 1 4 3 7 3 13-2 2-3-8-5-12-8-16z" fill="#D2456B"/>
<path transform="translate(1405,1008)" d="m0 0 2 1-5 4-16 8-6 2h-9v-2z" fill="#05676E"/>
<path transform="translate(787,564)" d="m0 0 6 1 4 5-3 5-1 1h-6l-3-3 1-7z" fill="#46D4B5"/>
<path transform="translate(738,1104)" d="m0 0 5 1v1l-9 1-14 1h-13l-25-2v-1h19l10 1 11-1z" fill="#D64D71"/>
<path transform="translate(502,786)" d="m0 0h2l-2 10-7 22h-1v-12l1-5 2-1v-4h2l1-5z" fill="#079A87"/>
<path transform="translate(862,905)" d="m0 0m-1 1m-1 1m-1 1m-1 1m-1 1m-2 1 2 1-6 8-5 5-6 3-9 8h-2l2-4 13-11 10-9z" fill="#FDDDA6"/>
<path transform="translate(1490,911)" d="m0 0 2 1-7 25-2 1v-5l-1-3 1-5z" fill="#0B817C"/>
<path transform="translate(560,947)" d="m0 0 3 3 4 8 3 7 2 4-7-6-9-12v-2z" fill="#08BF99"/>
<path transform="translate(1638,1264)" d="m0 0h5l-5 4-15 40-1-3 13-37z" fill="#FDD89B"/>
<path transform="translate(1528,1264)" d="m0 0h6l-1 4 1 9 8 22-1 3-11-28-2-6z" fill="#FDDDA4"/>
<path transform="translate(810,972)" d="m0 0v3l-11 7-16 8-11 5-2-1 16-8 8-5 10-5z" fill="#DC9017"/>
<path transform="translate(1572,844)" d="m0 0h1l2 14v10l-2-4-3-4-1-8-1-4 1-3 1 2h2z" fill="#DB6B8A"/>
<path transform="translate(1201,935)" d="m0 0h2l1 4-10 10h-1l-2-10 2-1h3 3z" fill="#05656D"/>
<path transform="translate(750,1264)" d="m0 0h5l-3 3-1 11-1 43h-1v-56z" fill="#FED999"/>
<path transform="translate(1532,991)" d="m0 0 1 3-4 5-3 5-3 4h-2l-2 5-7 4 2-5 5-5h3v-5l5-5z" fill="#C32453"/>
<path transform="translate(425,767)" d="m0 0 2 2 2 18v7h-3l-1-3-1-19z" fill="#C33A64"/>
<path transform="translate(1421,998)" d="m0 0 2 1-5 5-5 4h-2v2l-7 4-2-1 6-7z" fill="#047B77"/>
<path transform="translate(842,965)" d="m0 0 2 1-8 5-4 2-3 3-17 9-3-1 24-14z" fill="#F2B79B"/>
<path transform="translate(585,760)" d="m0 0 1 3-8 17-2-1 1-6h-2l1-5 3 1 3-6z" fill="#077F7A"/>
<path transform="translate(1264,632)" d="m0 0 6 1 6 3 1 3-13 1 1-5 1-2z" fill="#FDFCFB"/>
<path transform="translate(1164,1406)" d="m0 0 2 2 13 1 30 1v1h-45z" fill="#FDDB9F"/>
<path transform="translate(645,1096)" d="m0 0 13 3 9 2 15 3v1l-13-1-19-4-5-2z" fill="#D64D71"/>
<path transform="translate(445,891)" d="m0 0 3 4 5 14 2 3-1 2h2l1 6-5-5v-4h-2l-3-11-2-3z" fill="#841149"/>
<path transform="translate(910,1403)" d="m0 0h1v5l-3 2-8 1h-17l-3-1v-5l5 3 2 1 22-1z" fill="#FDDDA4"/>
<path transform="translate(1036,604)" d="m0 0 7 1 6 8 2 1 1 4h-3v-2l-4-1-4-6z" fill="#04616B"/>
<path transform="translate(1460,1264)" d="m0 0h7l1 1v13l-1 9-2 3-3-1 2-1 1-4v-14l-2-3 1-2z" fill="#F4C890"/>
<path transform="translate(1447,977)" d="m0 0m-1 1m-1 1 1 3-10 8-3 3h-2v2l-8 6-2-1 5-5 13-11z" fill="#047B77"/>
<path transform="translate(1402,790)" d="m0 0 3 2-5 3-14 8-3 2-3-1 11-7h2v-2l5-3h4z" fill="#FDF9F3"/>
<path transform="translate(580,755)" d="m0 0 2 4 1 4-4 7-1-2h-2v-7l2-4h2z" fill="#02A289"/>
<path transform="translate(1228,1061)" d="m0 0h2l2 6v5l-5 1-2-3v-4h2z" fill="#40D3B3"/>
<path transform="translate(560,930)" d="m0 0h2l2 4 2 9 8 16-1 2-5-8-6-14z" fill="#02C199"/>
<path transform="translate(640,1264)" d="m0 0h2l-1 4-1 45h-1v-48z" fill="#FED999"/>
<path transform="translate(716,1011)" d="m0 0 3 1-3 3-3 1-2-1-1 4-10 1-5 1 4-3 15-6z" fill="#FCF8F6"/>
<path transform="translate(1495,722)" d="m0 0 5 5 1 4h2l6 13-1 2-11-18-2-3z" fill="#911D52"/>
<path transform="translate(769,1099)" d="m0 0m-7 1h7v2l-17 3h-8l2-2 13-2z" fill="#D64D71"/>
<path transform="translate(1238,646)" d="m0 0h6l-3 2-24 10v-2l3-2h4v-2l4-2h5v-2z" fill="#FDEBCD"/>
<path transform="translate(778,1265)" d="m0 0 5 5 7 11 6 9-1 2-5-6-5-9-4-5-3-4z" fill="#FDDFAB"/>
<path transform="translate(1482,928)" d="m0 0 1 2-3 9-7 12h-2l2-6z" fill="#08686F"/>
<path transform="translate(469,1402)" d="m0 0 1 3-2 4-7 2h-8l-5-1v-1l18-2z" fill="#FDDCA3"/>
<path transform="translate(1112,1031)" d="m0 0v3l-16 16-6 4 2-4 13-12z" fill="#ECA59C"/>
<path transform="translate(1121,731)" d="m0 0 2 1-2 8-2-4-14 13-2-1 10-10z" fill="#0A626C"/>
<path transform="translate(582,973)" d="m0 0 9 9 4 2v3l-6-2-5-4z" fill="#0FC39D"/>
<path transform="translate(961,1144)" d="m0 0h2v2h-2v2l2 1-1 2h-9l1-4z" fill="#FDFCFA"/>
<path transform="translate(1390,796)" d="m0 0 3 1-12 7 1 2-8 5h-2v-2h3l2-4 3-3z" fill="#FBD4A5"/>
<path transform="translate(438,1264)" d="m0 0h5l-3 1-1 4-1 27h-1v-31z" fill="#FDD99B"/>
<path transform="translate(1470,951)" d="m0 0h2l-2 4-6 9-5 4v-3l10-12z" fill="#067B78"/>
<path transform="translate(1510,852)" d="m0 0 2 1 2 16v5l-2-3-2-6z" fill="#803B62"/>
<path transform="translate(1081,1384)" d="m0 0h8l1 1v22l-2-1v-16l-1-5h-6z" fill="#FDDBA0"/>
<path transform="translate(1033,709)" d="m0 0 1 3-9 12-2-3 8-10z" fill="#26586A"/>
<path transform="translate(1663,1264)" d="m0 0h8l1 2-3 8-2-2-2-6z" fill="#FDDA9E"/>
<path transform="translate(1491,1037)" d="m0 0m-3 1 2 1-1 3-9 4-3-1 2-3 8-3z" fill="#D85A7D"/>
<path transform="translate(1049,687)" d="m0 0 1 3-11 15h-2l2-4 9-13z" fill="#22586A"/>
<path transform="translate(1071,1070)" d="m0 0v3l-8 7-8 6-2-1 15-13z" fill="#FDC671"/>
<path transform="translate(477,992)" d="m0 0h2v2l10-2h5l-1 2-3 3-10-1-3-3z" fill="#841149"/>
<path transform="translate(1122,786)" d="m0 0 4 1v2l6-1-2 4-6 4v-3-6z" fill="#344F68"/>
<path transform="translate(1561,941)" d="m0 0 3 2-1 6-2 3h-2l-1-5h2l-1-3z" fill="#DA6888"/>
<path transform="translate(565,805)" d="m0 0 2 1-1 7-1 4-4-2 3-9z" fill="#0B8B80"/>
<path transform="translate(1272,775)" d="m0 0 2 1v7l-4 1-2-4 2-4z" fill="#AF6E15"/>
<path transform="translate(1440,1384)" d="m0 0h29l2 3-2 2-2-3-27-1z" fill="#FDD89E"/>
<path transform="translate(1492,1034)" d="m0 0 2 1-4 4-4 2-6 1 2-4 3-3 2 2z" fill="#C12C59"/>
<path transform="translate(804,955)" d="m0 0m-1 1m-1 1 1 2 3 1-6 2-8 6-2-1 9-8z" fill="#FDDA9E"/>
<path transform="translate(1559,1264)" d="m0 0 4 1 6 15-1 3-5-11z" fill="#FED999"/>
<path transform="translate(688,1026)" d="m0 0 3 1-9 3h-9l1-2 3-1z" fill="#CD6B75"/>
<path transform="translate(565,940)" d="m0 0 6 1 2 6-4-2 2 6-4-4-2-4z" fill="#038079"/>
<path transform="translate(842,923)" d="m0 0m-1 1m-1 1v3l-9 8h-2l2-4z" fill="#FDDFAA"/>
<path transform="translate(1567,823)" d="m0 0 2 3 1 8-4-1-2-7h2z" fill="#DB6C8C"/>
<path transform="translate(558,1112)" d="m0 0 7 2 2 3-3 1-9-3v-2z" fill="#D95E7F"/>
<path transform="translate(698,1022)" d="m0 0 9 2v1l-5 1h-9v-2z" fill="#DC7F95"/>
<path transform="translate(1501,1018)" d="m0 0h5v5l-4 1-1 2-3-1 1-3h2z" fill="#851149"/>
<path transform="translate(1421,998)" d="m0 0 2 1-3 4-7 3-6 2 4-4z" fill="#046A6F"/>
<path transform="translate(1041,803)" d="m0 0v3l-5 6-2 3-6 2 6-7z" fill="#1B5768"/>
<path transform="translate(511,764)" d="m0 0 2 4-7 16-2 1 3-9z" fill="#0A887F"/>
<path transform="translate(1164,1406)" d="m0 0 2 2 12 1 1 2h-15z" fill="#FDDEA8"/>
<path transform="translate(1489,1031)" d="m0 0 3 1 2 2-7 4-2-1 1-4z" fill="#8E174D"/>
<path transform="translate(520,751)" d="m0 0 1 2-7 13h-2l2-6 5-8z" fill="#047B77"/>
<path transform="translate(581,742)" d="m0 0m-2 1 2 1-6 7-1 3-5 2 2-4 7-8z" fill="#18C09E"/>
<path transform="translate(935,565)" d="m0 0 5 2-1 5-4-1-1-5z" fill="#71E0C6"/>
<path transform="translate(374,1403)" d="m0 0h1v6l-5 2h-7l-1-2 11-1z" fill="#FDDFAA"/>
<path transform="translate(740,999)" d="m0 0 2 1-3 4-4 2-3-1v-2z" fill="#FDE2B4"/>
<path transform="translate(1433,989)" d="m0 0m-1 1m-1 1m-1 1 1 3-8 6-2-1 5-5z" fill="#077E79"/>
<path transform="translate(569,945)" d="m0 0 4 2 3 7-3 1-4-7z" fill="#06A089"/>
<path transform="translate(627,502)" d="m0 0 4 1-13 6-3-1z" fill="#40D3B3"/>
<path transform="translate(1082,1341)" d="m0 0 1 2-1 7h-15v-1l12-1z" fill="#FED999"/>
<path transform="translate(750,1264)" d="m0 0h5l-3 3-2 11h-1v-13z" fill="#FDDBA0"/>
<path transform="translate(425,767)" d="m0 0 2 2v11l-3-3z" fill="#B93C67"/>
<path transform="translate(1048,1089)" d="m0 0v3l-10 9-2-1 5-5z" fill="#FDC570"/>
<path transform="translate(1536,993)" d="m0 0 3 1-3 7-4 1 2-5z" fill="#DA6485"/>
<path transform="translate(821,977)" d="m0 0h2l-1 3-10 5-3-1z" fill="#F6C29A"/>
<path transform="translate(1186,900)" d="m0 0 3 3v2l-3 2h-3l1-5z" fill="#04626B"/>
<path transform="translate(437,834)" d="m0 0 2 4 1 3v8l-2-4-2-10z" fill="#DE7994"/>
<path transform="translate(1402,790)" d="m0 0 3 2-5 3-7 1 5-4h4z" fill="#F7D1BB"/>
<path transform="translate(895,610)" d="m0 0 5 2 1 5-6-2z" fill="#40D3B3"/>
<path transform="translate(979,607)" d="m0 0h3l2 12-2 1-2-6v-5l-2-1z" fill="#02A289"/>
<path transform="translate(1079,1131)" d="m0 0 2 1-4 1v2l-9 1v-2z" fill="#FDC065"/>
<path transform="translate(1514,874)" d="m0 0" fill="#047B77"/>
<path transform="translate(1229,986)" d="m0 0" fill="#71E0C6"/>
</svg>
